<?xml version="1.0" standalone="no"?><!DOCTYPE svg PUBLIC "-//W3C//DTD SVG 1.1//EN" "http://www.w3.org/Graphics/SVG/1.1/DTD/svg11.dtd"><svg t="1597819796516" class="icon" viewBox="0 0 1024 1024" version="1.1" xmlns="http://www.w3.org/2000/svg" p-id="9523" xmlns:xlink="http://www.w3.org/1999/xlink" width="128" height="128"><defs><style type="text/css"></style></defs><path d="M746.4 259.4L569.9 157.5c-1.2-1.2-2.3-2.4-3.8-3.3-1.3-0.7-2.8-1-4.2-1.3l-77.5-44.7c-34.3-19.9-77-19.8-111.3 0L111.3 259.4c-34.3 19.8-55.6 56.7-55.6 96.4v302.4c0 39.6 21.3 76.6 55.6 96.4l192.3 111 69.5 40.2c17.2 9.9 36.4 14.9 55.6 14.9 19.3 0 38.5-5 55.7-14.9l53.6-31c8.6-4.9 11.5-15.9 6.6-24.5s-16-11.6-24.5-6.6l-48 27.7 145.4-277.7c4.6-8.8 1.2-19.6-7.6-24.2-8.8-4.5-19.6-1.2-24.2 7.6L426.6 881.2c-0.5 1-0.6 2-0.9 3.1-12-0.5-23.9-3.5-34.6-9.6L336.3 843l319.3-587.1c1.1-2 1.7-4.2 2-6.4l70.9 40.9c2.8 1.6 5 3.9 7.5 5.8-2.6 1.6-4.9 3.7-6.4 6.6L641 471.7c-4.6 8.8-1.2 19.6 7.6 24.2 2.7 1.4 5.5 2 8.3 2 6.5 0 12.7-3.5 15.9-9.6l85.9-164c4.5 9.8 7.5 20.3 7.5 31.3v167.6c0 9.9 8 17.9 17.9 17.9s17.9-8 17.9-17.9V355.7c0-39.6-21.3-76.5-55.6-96.3zM391.1 139.2c13.3-7.6 28.3-10.4 43.1-9.3l-334 562.7c-5.4-10.5-8.8-22.2-8.8-34.4V552.8c0.5-0.6 1.2-0.9 1.6-1.6l201.9-356.5 96.2-55.5zM129.3 290.4L233.8 230 91.5 481.3V355.7c0-26.8 14.5-51.8 37.8-65.3z m-3.8 430.1l344-579.6 63.2 36.5L202.9 766l-73.7-42.6c-1.4-0.7-2.4-2-3.7-2.9z m498.6-481.8L305.2 825.1 234 784l329.7-588.6 65.4 37.7c-2 1.5-3.8 3.3-5 5.6z" p-id="9524" fill="#1296db"></path><path d="M613.5 548.5l-17.9 17.9v328.9l17.9 17.9h70.3l17.9-17.9V566.5l-17.9-17.9h-70.3z m52.3 329h-34.4v-293h34.4v293zM745.4 638.6l-17.9 17.9v238.9l17.9 17.9h70.3l17.9-17.9V656.5l-17.9-17.9h-70.3z m52.4 238.9h-34.4v-203h34.4v203zM947.7 746.4h-70.3l-17.9 17.9v131l17.9 17.9h70.3l17.9-17.9v-131l-17.9-17.9z m-17.9 131.1h-34.4v-95.1h34.4v95.1z" p-id="9525" fill="#1296db"></path></svg>