<?xml version="1.0" standalone="no"?><!DOCTYPE svg PUBLIC "-//W3C//DTD SVG 1.1//EN" "http://www.w3.org/Graphics/SVG/1.1/DTD/svg11.dtd"><svg t="1594695694995" class="icon" viewBox="0 0 1024 1024" version="1.1" xmlns="http://www.w3.org/2000/svg" p-id="3604" xmlns:xlink="http://www.w3.org/1999/xlink" width="200" height="200"><defs><style type="text/css"></style></defs><path d="M510.48 557.27c-87.54 0-155.62-29.49-188.42-47.07-26.66-14.3-88.67-52.37-88.67-97.13 0-17.07 9.51-34.51 29.07-53.34 15.27-14.69 35.79-29.27 59.36-42.16 33.23-18.19 101.92-48.69 188.66-48.69s155.43 30.5 188.66 48.69c23.57 12.89 44.09 27.47 59.35 42.16 19.57 18.83 29.08 36.27 29.08 53.34 0 45.35-62.06 83.33-88.73 97.55-32.68 17.38-100.61 46.65-188.36 46.65zM299.42 413.76c6.76 9.13 26.21 27 61.56 44.5a343.64 343.64 0 0 0 149.5 35c51.08 0 104.29-12.36 149.84-34.82 35.57-17.53 54.86-35.48 61.35-44.52-7.17-9.21-27.29-27.37-62.77-45.22-45.9-23.1-98.64-35.82-148.42-35.82S408 345.6 362.06 368.71c-35.26 17.74-55.36 35.78-62.64 45.05z" fill="#1AD8E2" p-id="3605"></path><path d="M885.77 706H138.15a44.05 44.05 0 0 1-44-44V166.43a44.05 44.05 0 0 1 44-44h747.62a44.05 44.05 0 0 1 44 44V662a44.05 44.05 0 0 1-44 44z m-727.62-64h707.62V186.43H158.15z" fill="#2C77E5" p-id="3606"></path><path d="M244.86 829.88m32 0l478.3 0q32 0 32 32l0 0q0 32-32 32l-478.3 0q-32 0-32-32l0 0q0-32 32-32Z" fill="#2C77E5" p-id="3607"></path><path d="M481.9 638.18m0 32l0 175.21q0 32-32 32l0 0q-32 0-32-32l0-175.21q0-32 32-32l0 0q32 0 32 32Z" fill="#2C77E5" p-id="3608"></path><path d="M608.83 638.19m0 32l0 175.21q0 32-32 32l0 0q-32 0-32-32l0-175.21q0-32 32-32l0 0q32 0 32 32Z" fill="#2C77E5" p-id="3609"></path><path d="M468.48 415.81a47.13 61.47 0 1 0 94.26 0 47.13 61.47 0 1 0-94.26 0Z" fill="#2C77E5" p-id="3610"></path></svg>