<?xml version="1.0" standalone="no"?><!DOCTYPE svg PUBLIC "-//W3C//DTD SVG 1.1//EN" "http://www.w3.org/Graphics/SVG/1.1/DTD/svg11.dtd"><svg t="1599041367366" class="icon" viewBox="0 0 1024 1024" version="1.1" xmlns="http://www.w3.org/2000/svg" p-id="4759" xmlns:xlink="http://www.w3.org/1999/xlink" width="128" height="128"><defs><style type="text/css"></style></defs><path d="M953.088 855.9616c-101.2736-24.5248-174.7968-117.8112-174.7968-221.8496V393.1136c0-162.0992-127.1808-294.656-286.976-304.0256A140.9536 140.9536 0 0 0 361.5744 2.9184h-102.4a140.9024 140.9024 0 0 0-140.8 140.8v30.72c0 23.9616 6.6048 46.2336 17.2032 65.9968C82.1248 249.9072 41.5744 294.0928 41.5744 347.2384v216.3712a38.4 38.4 0 0 0 76.8 0V347.2384c0-17.3568 17.5616-32 38.4-32h307.2c20.8384 0 38.4 14.6432 38.4 32v422.4c0 17.3568-17.5616 32-38.4 32h-307.2c-20.8384 0-38.4-14.6432-38.4-32a38.4 38.4 0 0 0-76.8 0c0 60.0064 51.6608 108.8 115.2 108.8h307.2c63.5392 0 115.2-48.7936 115.2-108.8v-422.4c0-53.1456-40.6016-97.3312-94.0032-106.8032 10.5984-19.7632 17.2032-42.0352 17.2032-65.9968V167.936c111.9744 14.4384 199.1168 109.3632 199.1168 225.2288V634.112a304.1792 304.1792 0 0 0 233.5744 296.448 38.4 38.4 0 0 0 46.3872-28.2624 38.4 38.4 0 0 0-28.3648-46.336zM259.1744 238.4384c-35.2768 0-64-28.7232-64-64v-30.72c0-35.2768 28.7232-64 64-64h102.4c35.2768 0 64 28.7232 64 64v30.72c0 35.2768-28.7232 64-64 64h-102.4zM438.3744 944.2816h-256a38.4 38.4 0 0 0 0 76.8h256a38.4 38.4 0 0 0 0-76.8z" fill="#438CFF" p-id="4760"></path></svg>