<?xml version="1.0" standalone="no"?><!DOCTYPE svg PUBLIC "-//W3C//DTD SVG 1.1//EN" "http://www.w3.org/Graphics/SVG/1.1/DTD/svg11.dtd"><svg t="1599041412213" class="icon" viewBox="0 0 1024 1024" version="1.1" xmlns="http://www.w3.org/2000/svg" p-id="5849" xmlns:xlink="http://www.w3.org/1999/xlink" width="128" height="128"><defs><style type="text/css"></style></defs><path d="M816.4 523.2c9.8-8.7 10.7-23.7 1.9-33.5-8.7-9.8-23.7-10.7-33.5-1.9l-0.6 0.5c-6.7 83.4-84.7 136.3-88.2 138.7-4.4 2.9-9.3 4.3-14.2 4.3-8.3 0-16.5-4-21.4-11.5-3.6-5.4-4.9-11.6-4.1-17.6L457 779.6 319 631.8c-9-9.6-24-10.1-33.6-1.2-9.6 9-10.1 24-1.2 33.6l137.3 147.1h71.3l323.6-288.1z" fill="#1296db" p-id="5850"></path><path d="M64.2 862.8h900.5c14.2 0 25.7-11.5 25.7-25.7s-11.5-25.7-25.7-25.7H64.2c-14.2 0-25.7 11.5-25.7 25.7s11.5 25.7 25.7 25.7zM964.8 939.9H64.2c-14.2 0-25.7 11.5-25.7 25.7s11.5 25.7 25.7 25.7h900.5c14.2 0 25.7-11.5 25.7-25.7s-11.4-25.7-25.6-25.7z" fill="#1296db" p-id="5851"></path><path d="M270.1 476.8c0-22.3-8.4-39.4-20.3-58l-24.6 147.8c19.1-18.6 44.9-50.7 44.9-89.8zM244.3 271c0 30 7.5 52.2 18 71.8l28.2-169c-17.6 11.7-46.2 39.4-46.2 97.2z" fill="#1296db" p-id="5852"></path><path d="M225.1 566.6c-11.4 11-20.5 17.3-20.7 17.4-11.8 7.9-15 23.9-7.1 35.7 5 7.4 13.1 11.5 21.4 11.5 4.9 0 9.9-1.4 14.2-4.3 3.6-2.4 88.6-60.1 88.6-150.1 0-43.7-19.7-73-38.8-101.4-7.2-10.7-14.3-21.2-20.3-32.6-10.5-19.7-18-41.8-18-71.8 0-57.8 28.5-85.5 46.2-97.1 7.4-4.9 12.9-6.9 13.6-7.2l-0.2 0.1-16.3-48.8c-2.6 0.9-25.7 9-48.7 31.9-21 21-46.1 59.1-46.1 121.1 0 63 26.1 101.9 47.1 133.1 3.4 5.1 6.7 9.9 9.7 14.7 11.9 18.7 20.3 35.7 20.3 58 0.1 39.1-25.7 71.2-44.9 89.8z" fill="#1296db" p-id="5853"></path><path d="M501.6 476.8c0-22.3-8.4-39.4-20.3-58l-24.6 147.8c19.2-18.6 44.9-50.7 44.9-89.8zM475.9 271c0 30 7.5 52.2 18 71.8l28.2-169c-17.7 11.7-46.2 39.4-46.2 97.2zM527.4 142.3z" fill="#1296db" p-id="5854"></path><path d="M456.6 566.6c-11.4 11-20.5 17.3-20.7 17.4-11.8 7.9-15 23.9-7.1 35.7 5 7.4 13.1 11.5 21.4 11.5 4.9 0 9.9-1.4 14.2-4.3 3.6-2.4 88.6-60.1 88.6-150.1 0-43.7-19.7-73-38.8-101.4-7.2-10.7-14.3-21.2-20.3-32.6-10.5-19.7-18-41.8-18-71.8 0-57.8 28.5-85.5 46.2-97.1 7.4-4.9 12.9-6.9 13.6-7.2l-0.2 0.1-8.1-24.4-8.1-24.4c-2.6 0.9-25.7 9-48.7 31.9-21 21-46.1 59.1-46.1 121.1 0 63 26.1 101.9 47.1 133.1 3.4 5.1 6.7 9.9 9.7 14.7 11.9 18.7 20.3 35.7 20.3 58 0 39.1-25.7 71.2-45 89.8z" fill="#1296db" p-id="5855"></path><path d="M707.5 271c0 30 7.5 52.2 18 71.8l28.2-169c-17.7 11.7-46.2 39.4-46.2 97.2zM733.2 476.8c0-22.3-8.4-39.4-20.3-58l-24.6 147.8c19.2-18.6 44.9-50.7 44.9-89.8z" fill="#1296db" p-id="5856"></path><path d="M660.3 619.7c5 7.4 13.1 11.5 21.4 11.5 4.9 0 9.9-1.4 14.2-4.3 3.5-2.3 81.5-55.3 88.2-138.7 0.3-3.7 0.5-7.5 0.5-11.4 0-43.7-19.7-73-38.8-101.4-7.2-10.7-14.3-21.2-20.3-32.6-10.5-19.7-18-41.8-18-71.8 0-57.8 28.5-85.5 46.2-97.1 7.4-4.9 12.9-6.9 13.6-7.2l-0.2 0.1-16.3-48.8c-2.6 0.9-25.7 9-48.7 31.9-21 21-46.1 59.1-46.1 121.1 0 63 26.1 101.9 47.1 133.1 3.4 5.1 6.7 9.9 9.7 14.7 11.9 18.7 20.3 35.7 20.3 58 0 39.1-25.7 71.2-45 89.8-11.4 11-20.5 17.3-20.7 17.4a25.7 25.7 0 0 0-11.2 18.1c-0.7 6 0.5 12.3 4.1 17.6z" fill="#1296db" p-id="5857"></path></svg>