<?xml version="1.0" standalone="no"?><!DOCTYPE svg PUBLIC "-//W3C//DTD SVG 1.1//EN" "http://www.w3.org/Graphics/SVG/1.1/DTD/svg11.dtd"><svg t="1599041316538" class="icon" viewBox="0 0 1024 1024" version="1.1" xmlns="http://www.w3.org/2000/svg" p-id="3428" xmlns:xlink="http://www.w3.org/1999/xlink" width="128" height="128"><defs><style type="text/css"></style></defs><path d="M400.6 878.1l22 11C444.4 845.5 525.5 785 621 785c32.4 0 65.6 8.5 98.7 25.2l11.1-22c-36.6-18.5-73.5-27.8-109.8-27.8-99.7 0-192.1 61.1-220.4 117.7zM485.3 529.1c42.2-19.6 85.7-39.8 135.9-39.8 92.1 0 163.1 69.6 163.8 70.3l17.4-17.4c-3.2-3.2-78.7-77.5-181.2-77.5-55.5 0-103.7 22.4-146.2 42.1-35.3 16.4-68.6 31.9-100.2 31.9-68.2 0-123.5-47.8-124.1-48.3l-16.3 18.5c2.5 2.2 62.6 54.4 140.3 54.4 37 0 72.8-16.6 110.6-34.2zM474.9 654.6c-35.3 16.4-68.6 31.9-100.2 31.9-68.2 0-123.5-47.8-124.1-48.3l-16.3 18.5c2.5 2.2 62.6 54.4 140.3 54.4 37 0 72.8-16.6 110.6-34.1 42.2-19.6 85.7-39.8 135.9-39.8 92.1 0 163.1 69.6 163.8 70.3l17.4-17.4c-3.2-3.2-78.7-77.5-181.2-77.5-55.5 0-103.7 22.3-146.2 42z" fill="#1296db" p-id="3429"></path><path d="M529 89.7l-16.7-16.1-17.1 15.6c-14.7 13.5-360.1 332.7-284.8 601 36.4 129.5 160.9 222.5 302.8 226.1 2.9 0.1 5.7 0.1 8.6 0.1 134.9 0 243.3-83.6 291-225C895 448.3 544 104.2 529 89.7zM511.4 142c58.6 61 251.7 274.8 264 451.7-31.2-22.9-86.8-55.1-154.3-55.1-55.5 0-103.7 22.4-146.2 42.1-35.3 16.4-68.6 31.9-100.2 31.9-62.3 0-113.3-39.5-122.2-46.8C278.9 385.2 455.3 197.7 511.4 142z m235.1 580.8c-32.4-18.8-75.7-36.3-125.3-36.3-55.5 0-103.7 22.4-146.2 42.1-35.3 16.4-68.6 31.9-100.2 31.9-36.8 0-69.5-13.9-92.2-26.8-10.6-17.8-18.9-36.8-24.5-56.8-7.5-26.8-9.9-54.5-8.4-82.5 22.8 16 69.2 42.9 125.2 42.9 37 0 72.8-16.6 110.6-34.1 42.2-19.6 85.7-39.8 135.9-39.8 72.9 0 132.5 43.6 154.5 62.1-1.1 17.3-4 34.1-9.5 50.3-5.9 16.6-12.5 32.3-19.9 47zM514.6 867.1c-78.5-2-152.3-37.9-201.9-93 18.6 6.3 39.5 11 62.1 11 37 0 72.8-16.6 110.6-34.1 42.2-19.6 85.7-39.8 135.9-39.8 44.6 0 83.9 16.1 113.4 33.2-49.2 81-126.9 124.9-220.1 122.7z" fill="#1296db" p-id="3430"></path></svg>